<?xml version="1.0" encoding="utf-8" standalone="no"?>
<!DOCTYPE svg PUBLIC "-//W3C//DTD SVG 1.1//EN"
  "http://www.w3.org/Graphics/SVG/1.1/DTD/svg11.dtd">
<svg height="207.83625pt" version="1.1" viewBox="0 0 337.578125 207.83625" width="337.578125pt" xmlns="http://www.w3.org/2000/svg" xmlns:xlink="http://www.w3.org/1999/xlink">
 <metadata>
  <rdf:RDF xmlns:cc="http://creativecommons.org/ns#" xmlns:dc="http://purl.org/dc/elements/1.1/" xmlns:rdf="http://www.w3.org/1999/02/22-rdf-syntax-ns#">
   <cc:Work>
    <dc:type rdf:resource="http://purl.org/dc/dcmitype/StillImage"/>
    <dc:date>2021-07-06T11:01:37.940896</dc:date>
    <dc:format>image/svg+xml</dc:format>
    <dc:creator>
     <cc:Agent>
      <dc:title>Matplotlib v3.4.2, https://matplotlib.org/</dc:title>
     </cc:Agent>
    </dc:creator>
   </cc:Work>
  </rdf:RDF>
 </metadata>
 <defs>
  <style type="text/css">*{stroke-linecap:butt;stroke-linejoin:round;}</style>
 </defs>
 <g id="figure_1">
  <g id="patch_1">
   <path d="M 0 207.83625 
L 337.578125 207.83625 
L 337.578125 0 
L 0 0 
z
" style="fill:none;"/>
  </g>
  <g id="axes_1">
   <g id="patch_2">
    <path d="M 51.378125 170.28 
L 330.378125 170.28 
L 330.378125 7.2 
L 51.378125 7.2 
z
" style="fill:#ffffff;"/>
   </g>
   <g id="matplotlib.axis_1">
    <g id="xtick_1">
     <g id="line2d_1">
      <defs>
       <path d="M 0 0 
L 0 3.5 
" id="me3465b8589" style="stroke:#000000;stroke-width:0.8;"/>
      </defs>
      <g>
       <use style="stroke:#000000;stroke-width:0.8;" x="64.059943" xlink:href="#me3465b8589" y="170.28"/>
      </g>
     </g>
     <g id="text_1">
      <!-- 0 -->
      <g transform="translate(60.878693 184.878438)scale(0.1 -0.1)">
       <defs>
        <path d="M 2034 4250 
Q 1547 4250 1301 3770 
Q 1056 3291 1056 2328 
Q 1056 1369 1301 889 
Q 1547 409 2034 409 
Q 2525 409 2770 889 
Q 3016 1369 3016 2328 
Q 3016 3291 2770 3770 
Q 2525 4250 2034 4250 
z
M 2034 4750 
Q 2819 4750 3233 4129 
Q 3647 3509 3647 2328 
Q 3647 1150 3233 529 
Q 2819 -91 2034 -91 
Q 1250 -91 836 529 
Q 422 1150 422 2328 
Q 422 3509 836 4129 
Q 1250 4750 2034 4750 
z
" id="DejaVuSans-30" transform="scale(0.015625)"/>
       </defs>
       <use xlink:href="#DejaVuSans-30"/>
      </g>
     </g>
    </g>
    <g id="xtick_2">
     <g id="line2d_2">
      <g>
       <use style="stroke:#000000;stroke-width:0.8;" x="100.293709" xlink:href="#me3465b8589" y="170.28"/>
      </g>
     </g>
     <g id="text_2">
      <!-- 1 -->
      <g transform="translate(97.112459 184.878438)scale(0.1 -0.1)">
       <defs>
        <path d="M 794 531 
L 1825 531 
L 1825 4091 
L 703 3866 
L 703 4441 
L 1819 4666 
L 2450 4666 
L 2450 531 
L 3481 531 
L 3481 0 
L 794 0 
L 794 531 
z
" id="DejaVuSans-31" transform="scale(0.015625)"/>
       </defs>
       <use xlink:href="#DejaVuSans-31"/>
      </g>
     </g>
    </g>
    <g id="xtick_3">
     <g id="line2d_3">
      <g>
       <use style="stroke:#000000;stroke-width:0.8;" x="136.527476" xlink:href="#me3465b8589" y="170.28"/>
      </g>
     </g>
     <g id="text_3">
      <!-- 2 -->
      <g transform="translate(133.346226 184.878438)scale(0.1 -0.1)">
       <defs>
        <path d="M 1228 531 
L 3431 531 
L 3431 0 
L 469 0 
L 469 531 
Q 828 903 1448 1529 
Q 2069 2156 2228 2338 
Q 2531 2678 2651 2914 
Q 2772 3150 2772 3378 
Q 2772 3750 2511 3984 
Q 2250 4219 1831 4219 
Q 1534 4219 1204 4116 
Q 875 4013 500 3803 
L 500 4441 
Q 881 4594 1212 4672 
Q 1544 4750 1819 4750 
Q 2544 4750 2975 4387 
Q 3406 4025 3406 3419 
Q 3406 3131 3298 2873 
Q 3191 2616 2906 2266 
Q 2828 2175 2409 1742 
Q 1991 1309 1228 531 
z
" id="DejaVuSans-32" transform="scale(0.015625)"/>
       </defs>
       <use xlink:href="#DejaVuSans-32"/>
      </g>
     </g>
    </g>
    <g id="xtick_4">
     <g id="line2d_4">
      <g>
       <use style="stroke:#000000;stroke-width:0.8;" x="172.761242" xlink:href="#me3465b8589" y="170.28"/>
      </g>
     </g>
     <g id="text_4">
      <!-- 3 -->
      <g transform="translate(169.579992 184.878438)scale(0.1 -0.1)">
       <defs>
        <path d="M 2597 2516 
Q 3050 2419 3304 2112 
Q 3559 1806 3559 1356 
Q 3559 666 3084 287 
Q 2609 -91 1734 -91 
Q 1441 -91 1130 -33 
Q 819 25 488 141 
L 488 750 
Q 750 597 1062 519 
Q 1375 441 1716 441 
Q 2309 441 2620 675 
Q 2931 909 2931 1356 
Q 2931 1769 2642 2001 
Q 2353 2234 1838 2234 
L 1294 2234 
L 1294 2753 
L 1863 2753 
Q 2328 2753 2575 2939 
Q 2822 3125 2822 3475 
Q 2822 3834 2567 4026 
Q 2313 4219 1838 4219 
Q 1578 4219 1281 4162 
Q 984 4106 628 3988 
L 628 4550 
Q 988 4650 1302 4700 
Q 1616 4750 1894 4750 
Q 2613 4750 3031 4423 
Q 3450 4097 3450 3541 
Q 3450 3153 3228 2886 
Q 3006 2619 2597 2516 
z
" id="DejaVuSans-33" transform="scale(0.015625)"/>
       </defs>
       <use xlink:href="#DejaVuSans-33"/>
      </g>
     </g>
    </g>
    <g id="xtick_5">
     <g id="line2d_5">
      <g>
       <use style="stroke:#000000;stroke-width:0.8;" x="208.995008" xlink:href="#me3465b8589" y="170.28"/>
      </g>
     </g>
     <g id="text_5">
      <!-- 4 -->
      <g transform="translate(205.813758 184.878438)scale(0.1 -0.1)">
       <defs>
        <path d="M 2419 4116 
L 825 1625 
L 2419 1625 
L 2419 4116 
z
M 2253 4666 
L 3047 4666 
L 3047 1625 
L 3713 1625 
L 3713 1100 
L 3047 1100 
L 3047 0 
L 2419 0 
L 2419 1100 
L 313 1100 
L 313 1709 
L 2253 4666 
z
" id="DejaVuSans-34" transform="scale(0.015625)"/>
       </defs>
       <use xlink:href="#DejaVuSans-34"/>
      </g>
     </g>
    </g>
    <g id="xtick_6">
     <g id="line2d_6">
      <g>
       <use style="stroke:#000000;stroke-width:0.8;" x="245.228774" xlink:href="#me3465b8589" y="170.28"/>
      </g>
     </g>
     <g id="text_6">
      <!-- 5 -->
      <g transform="translate(242.047524 184.878438)scale(0.1 -0.1)">
       <defs>
        <path d="M 691 4666 
L 3169 4666 
L 3169 4134 
L 1269 4134 
L 1269 2991 
Q 1406 3038 1543 3061 
Q 1681 3084 1819 3084 
Q 2600 3084 3056 2656 
Q 3513 2228 3513 1497 
Q 3513 744 3044 326 
Q 2575 -91 1722 -91 
Q 1428 -91 1123 -41 
Q 819 9 494 109 
L 494 744 
Q 775 591 1075 516 
Q 1375 441 1709 441 
Q 2250 441 2565 725 
Q 2881 1009 2881 1497 
Q 2881 1984 2565 2268 
Q 2250 2553 1709 2553 
Q 1456 2553 1204 2497 
Q 953 2441 691 2322 
L 691 4666 
z
" id="DejaVuSans-35" transform="scale(0.015625)"/>
       </defs>
       <use xlink:href="#DejaVuSans-35"/>
      </g>
     </g>
    </g>
    <g id="xtick_7">
     <g id="line2d_7">
      <g>
       <use style="stroke:#000000;stroke-width:0.8;" x="281.462541" xlink:href="#me3465b8589" y="170.28"/>
      </g>
     </g>
     <g id="text_7">
      <!-- 6 -->
      <g transform="translate(278.281291 184.878438)scale(0.1 -0.1)">
       <defs>
        <path d="M 2113 2584 
Q 1688 2584 1439 2293 
Q 1191 2003 1191 1497 
Q 1191 994 1439 701 
Q 1688 409 2113 409 
Q 2538 409 2786 701 
Q 3034 994 3034 1497 
Q 3034 2003 2786 2293 
Q 2538 2584 2113 2584 
z
M 3366 4563 
L 3366 3988 
Q 3128 4100 2886 4159 
Q 2644 4219 2406 4219 
Q 1781 4219 1451 3797 
Q 1122 3375 1075 2522 
Q 1259 2794 1537 2939 
Q 1816 3084 2150 3084 
Q 2853 3084 3261 2657 
Q 3669 2231 3669 1497 
Q 3669 778 3244 343 
Q 2819 -91 2113 -91 
Q 1303 -91 875 529 
Q 447 1150 447 2328 
Q 447 3434 972 4092 
Q 1497 4750 2381 4750 
Q 2619 4750 2861 4703 
Q 3103 4656 3366 4563 
z
" id="DejaVuSans-36" transform="scale(0.015625)"/>
       </defs>
       <use xlink:href="#DejaVuSans-36"/>
      </g>
     </g>
    </g>
    <g id="xtick_8">
     <g id="line2d_8">
      <g>
       <use style="stroke:#000000;stroke-width:0.8;" x="317.696307" xlink:href="#me3465b8589" y="170.28"/>
      </g>
     </g>
     <g id="text_8">
      <!-- 7 -->
      <g transform="translate(314.515057 184.878438)scale(0.1 -0.1)">
       <defs>
        <path d="M 525 4666 
L 3525 4666 
L 3525 4397 
L 1831 0 
L 1172 0 
L 2766 4134 
L 525 4134 
L 525 4666 
z
" id="DejaVuSans-37" transform="scale(0.015625)"/>
       </defs>
       <use xlink:href="#DejaVuSans-37"/>
      </g>
     </g>
    </g>
    <g id="text_9">
     <!-- $Jt$ -->
     <g transform="translate(187.428125 198.53625)scale(0.1 -0.1)">
      <defs>
       <path d="M 1069 4666 
L 1703 4666 
L 856 325 
Q 691 -522 298 -901 
Q -94 -1281 -800 -1281 
L -1050 -1281 
L -947 -750 
L -750 -750 
Q -328 -750 -109 -509 
Q 109 -269 225 325 
L 1069 4666 
z
" id="DejaVuSans-Oblique-4a" transform="scale(0.015625)"/>
       <path d="M 2706 3500 
L 2619 3053 
L 1472 3053 
L 1100 1153 
Q 1081 1047 1072 975 
Q 1063 903 1063 863 
Q 1063 663 1183 572 
Q 1303 481 1569 481 
L 2150 481 
L 2053 0 
L 1503 0 
Q 991 0 739 200 
Q 488 400 488 806 
Q 488 878 497 964 
Q 506 1050 525 1153 
L 897 3053 
L 409 3053 
L 500 3500 
L 978 3500 
L 1172 4494 
L 1747 4494 
L 1556 3500 
L 2706 3500 
z
" id="DejaVuSans-Oblique-74" transform="scale(0.015625)"/>
      </defs>
      <use transform="translate(0 0.09375)" xlink:href="#DejaVuSans-Oblique-4a"/>
      <use transform="translate(29.492188 0.09375)" xlink:href="#DejaVuSans-Oblique-74"/>
     </g>
    </g>
   </g>
   <g id="matplotlib.axis_2">
    <g id="ytick_1">
     <g id="line2d_9">
      <defs>
       <path d="M 0 0 
L -3.5 0 
" id="m1d08173c29" style="stroke:#000000;stroke-width:0.8;"/>
      </defs>
      <g>
       <use style="stroke:#000000;stroke-width:0.8;" x="51.378125" xlink:href="#m1d08173c29" y="138.918852"/>
      </g>
     </g>
     <g id="text_10">
      <!-- $\mathdefault{10^{-8}}$ -->
      <g transform="translate(20.878125 142.71807)scale(0.1 -0.1)">
       <defs>
        <path d="M 678 2272 
L 4684 2272 
L 4684 1741 
L 678 1741 
L 678 2272 
z
" id="DejaVuSans-2212" transform="scale(0.015625)"/>
        <path d="M 2034 2216 
Q 1584 2216 1326 1975 
Q 1069 1734 1069 1313 
Q 1069 891 1326 650 
Q 1584 409 2034 409 
Q 2484 409 2743 651 
Q 3003 894 3003 1313 
Q 3003 1734 2745 1975 
Q 2488 2216 2034 2216 
z
M 1403 2484 
Q 997 2584 770 2862 
Q 544 3141 544 3541 
Q 544 4100 942 4425 
Q 1341 4750 2034 4750 
Q 2731 4750 3128 4425 
Q 3525 4100 3525 3541 
Q 3525 3141 3298 2862 
Q 3072 2584 2669 2484 
Q 3125 2378 3379 2068 
Q 3634 1759 3634 1313 
Q 3634 634 3220 271 
Q 2806 -91 2034 -91 
Q 1263 -91 848 271 
Q 434 634 434 1313 
Q 434 1759 690 2068 
Q 947 2378 1403 2484 
z
M 1172 3481 
Q 1172 3119 1398 2916 
Q 1625 2713 2034 2713 
Q 2441 2713 2670 2916 
Q 2900 3119 2900 3481 
Q 2900 3844 2670 4047 
Q 2441 4250 2034 4250 
Q 1625 4250 1398 4047 
Q 1172 3844 1172 3481 
z
" id="DejaVuSans-38" transform="scale(0.015625)"/>
       </defs>
       <use transform="translate(0 0.765625)" xlink:href="#DejaVuSans-31"/>
       <use transform="translate(63.623047 0.765625)" xlink:href="#DejaVuSans-30"/>
       <use transform="translate(128.203125 39.046875)scale(0.7)" xlink:href="#DejaVuSans-2212"/>
       <use transform="translate(186.855469 39.046875)scale(0.7)" xlink:href="#DejaVuSans-38"/>
      </g>
     </g>
    </g>
    <g id="ytick_2">
     <g id="line2d_10">
      <g>
       <use style="stroke:#000000;stroke-width:0.8;" x="51.378125" xlink:href="#m1d08173c29" y="107.379837"/>
      </g>
     </g>
     <g id="text_11">
      <!-- $\mathdefault{10^{-6}}$ -->
      <g transform="translate(20.878125 111.179055)scale(0.1 -0.1)">
       <use transform="translate(0 0.765625)" xlink:href="#DejaVuSans-31"/>
       <use transform="translate(63.623047 0.765625)" xlink:href="#DejaVuSans-30"/>
       <use transform="translate(128.203125 39.046875)scale(0.7)" xlink:href="#DejaVuSans-2212"/>
       <use transform="translate(186.855469 39.046875)scale(0.7)" xlink:href="#DejaVuSans-36"/>
      </g>
     </g>
    </g>
    <g id="ytick_3">
     <g id="line2d_11">
      <g>
       <use style="stroke:#000000;stroke-width:0.8;" x="51.378125" xlink:href="#m1d08173c29" y="75.840821"/>
      </g>
     </g>
     <g id="text_12">
      <!-- $\mathdefault{10^{-4}}$ -->
      <g transform="translate(20.878125 79.64004)scale(0.1 -0.1)">
       <use transform="translate(0 0.684375)" xlink:href="#DejaVuSans-31"/>
       <use transform="translate(63.623047 0.684375)" xlink:href="#DejaVuSans-30"/>
       <use transform="translate(128.203125 38.965625)scale(0.7)" xlink:href="#DejaVuSans-2212"/>
       <use transform="translate(186.855469 38.965625)scale(0.7)" xlink:href="#DejaVuSans-34"/>
      </g>
     </g>
    </g>
    <g id="ytick_4">
     <g id="line2d_12">
      <g>
       <use style="stroke:#000000;stroke-width:0.8;" x="51.378125" xlink:href="#m1d08173c29" y="44.301806"/>
      </g>
     </g>
     <g id="text_13">
      <!-- $\mathdefault{10^{-2}}$ -->
      <g transform="translate(20.878125 48.101025)scale(0.1 -0.1)">
       <use transform="translate(0 0.765625)" xlink:href="#DejaVuSans-31"/>
       <use transform="translate(63.623047 0.765625)" xlink:href="#DejaVuSans-30"/>
       <use transform="translate(128.203125 39.046875)scale(0.7)" xlink:href="#DejaVuSans-2212"/>
       <use transform="translate(186.855469 39.046875)scale(0.7)" xlink:href="#DejaVuSans-32"/>
      </g>
     </g>
    </g>
    <g id="ytick_5">
     <g id="line2d_13">
      <g>
       <use style="stroke:#000000;stroke-width:0.8;" x="51.378125" xlink:href="#m1d08173c29" y="12.762791"/>
      </g>
     </g>
     <g id="text_14">
      <!-- $\mathdefault{10^{0}}$ -->
      <g transform="translate(26.778125 16.56201)scale(0.1 -0.1)">
       <use transform="translate(0 0.765625)" xlink:href="#DejaVuSans-31"/>
       <use transform="translate(63.623047 0.765625)" xlink:href="#DejaVuSans-30"/>
       <use transform="translate(128.203125 39.046875)scale(0.7)" xlink:href="#DejaVuSans-30"/>
      </g>
     </g>
    </g>
    <g id="text_15">
     <!-- $1-F$ -->
     <g transform="translate(14.798438 100.94)rotate(-90)scale(0.1 -0.1)">
      <defs>
       <path d="M 1081 4666 
L 3756 4666 
L 3653 4134 
L 1606 4134 
L 1338 2759 
L 3188 2759 
L 3084 2228 
L 1234 2228 
L 800 0 
L 172 0 
L 1081 4666 
z
" id="DejaVuSans-Oblique-46" transform="scale(0.015625)"/>
      </defs>
      <use transform="translate(0 0.09375)" xlink:href="#DejaVuSans-31"/>
      <use transform="translate(83.105469 0.09375)" xlink:href="#DejaVuSans-2212"/>
      <use transform="translate(186.376953 0.09375)" xlink:href="#DejaVuSans-Oblique-46"/>
     </g>
    </g>
   </g>
   <g id="line2d_14">
    <path clip-path="url(#p1b93fd8c23)" d="M 64.059943 162.867273 
L 67.68332 91.168665 
L 71.306696 72.054179 
L 74.930073 68.983286 
L 78.55345 61.666338 
L 82.176826 53.001715 
L 85.800203 49.164562 
L 89.42358 48.750618 
L 93.046956 44.605048 
L 96.670333 25.831539 
L 100.293709 25.331453 
L 103.917086 64.732618 
L 107.540463 28.364835 
L 111.163839 20.536251 
L 114.787216 53.169413 
L 118.410593 17.196897 
L 122.033969 18.894379 
L 125.657346 21.606591 
L 129.280722 41.237967 
L 132.904099 38.752334 
L 136.527476 19.73746 
L 140.150852 20.332106 
L 143.774229 18.35505 
L 147.397606 17.874809 
L 151.020982 16.189655 
L 154.644359 16.506656 
L 158.267735 17.426621 
L 161.891112 16.639371 
L 165.514489 16.859527 
L 169.137865 17.12852 
L 172.761242 16.331978 
L 176.384619 16.576582 
L 180.007995 16.152801 
L 183.631372 15.906227 
L 187.254748 16.013871 
L 190.878125 14.612727 
L 194.501502 16.895527 
L 198.124878 16.171788 
L 201.748255 15.348113 
L 205.371631 15.991478 
L 208.995008 16.076334 
L 212.618385 15.925721 
L 216.241761 16.106739 
L 219.865138 15.964407 
L 223.488515 15.638334 
L 227.111891 15.315127 
L 230.735268 15.448673 
L 234.358644 14.908731 
L 237.982021 15.769429 
L 241.605398 15.47862 
L 245.228774 15.799532 
L 248.852151 15.791732 
L 252.475528 15.801804 
L 256.098904 15.809953 
L 259.722281 15.260296 
L 263.345657 15.166806 
L 266.969034 15.406802 
L 270.592411 16.037188 
L 274.215787 16.059766 
L 277.839164 15.79784 
L 281.462541 15.676941 
L 285.085917 15.24929 
L 288.709294 15.660033 
L 292.33267 15.883979 
L 295.956047 15.762511 
L 299.579424 15.788609 
L 303.2028 15.381662 
L 306.826177 15.519132 
L 310.449554 15.226574 
L 314.07293 15.408842 
L 317.696307 15.605494 
" style="fill:none;stroke:#440154;stroke-linecap:square;stroke-width:1.5;"/>
   </g>
   <g id="line2d_15">
    <path clip-path="url(#p1b93fd8c23)" d="M 64.059943 121.866371 
L 67.68332 90.366552 
L 71.306696 84.95408 
L 74.930073 82.683375 
L 78.55345 83.13691 
L 82.176826 81.784832 
L 85.800203 69.524468 
L 89.42358 57.875407 
L 93.046956 61.899462 
L 96.670333 58.554273 
L 100.293709 82.742193 
L 103.917086 72.968197 
L 107.540463 65.224875 
L 111.163839 51.723669 
L 114.787216 49.965187 
L 118.410593 48.478233 
L 122.033969 63.143074 
L 125.657346 39.941699 
L 129.280722 38.989193 
L 132.904099 45.017688 
L 136.527476 37.496286 
L 140.150852 48.941522 
L 143.774229 23.814115 
L 147.397606 59.341749 
L 151.020982 35.017995 
L 154.644359 23.852618 
L 158.267735 22.411337 
L 161.891112 30.653797 
L 165.514489 24.231333 
L 169.137865 21.998077 
L 172.761242 24.359245 
L 176.384619 30.38864 
L 180.007995 20.95462 
L 183.631372 24.108828 
L 187.254748 21.050145 
L 190.878125 32.165295 
L 194.501502 22.84499 
L 198.124878 22.365784 
L 201.748255 21.941327 
L 205.371631 22.116891 
L 208.995008 21.53259 
L 212.618385 20.948043 
L 216.241761 22.670058 
L 219.865138 22.169284 
L 223.488515 22.682598 
L 227.111891 22.308858 
L 230.735268 22.241856 
L 234.358644 22.964368 
L 237.982021 22.074706 
L 241.605398 22.79248 
L 245.228774 21.68091 
L 248.852151 22.748832 
L 252.475528 23.809062 
L 256.098904 24.478456 
L 259.722281 23.147797 
L 263.345657 23.200639 
L 266.969034 23.251381 
L 270.592411 22.39716 
L 274.215787 23.38316 
L 277.839164 23.153816 
L 281.462541 24.307397 
L 285.085917 23.022174 
L 288.709294 24.146198 
L 292.33267 24.120798 
L 295.956047 23.35965 
L 299.579424 23.712247 
L 303.2028 23.372821 
L 306.826177 24.560252 
L 310.449554 24.117556 
L 314.07293 24.970818 
L 317.696307 23.240316 
" style="fill:none;stroke:#414487;stroke-linecap:square;stroke-width:1.5;"/>
   </g>
   <g id="line2d_16">
    <path clip-path="url(#p1b93fd8c23)" d="M 64.059943 121.649544 
L 67.68332 89.230037 
L 71.306696 95.023118 
L 74.930073 84.293566 
L 78.55345 78.510058 
L 82.176826 83.774101 
L 85.800203 85.253046 
L 89.42358 73.21736 
L 93.046956 78.079718 
L 96.670333 82.440471 
L 100.293709 73.767387 
L 103.917086 75.485196 
L 107.540463 73.104048 
L 111.163839 80.677107 
L 114.787216 68.057161 
L 118.410593 37.806459 
L 122.033969 67.915207 
L 125.657346 67.564033 
L 129.280722 32.024579 
L 132.904099 36.231959 
L 136.527476 37.729848 
L 140.150852 32.632411 
L 143.774229 33.363925 
L 147.397606 35.466159 
L 151.020982 34.232736 
L 154.644359 30.620369 
L 158.267735 34.309679 
L 161.891112 34.925037 
L 165.514489 35.051071 
L 169.137865 33.066849 
L 172.761242 32.609946 
L 176.384619 32.024512 
L 180.007995 32.916265 
L 183.631372 32.954879 
L 187.254748 33.34926 
L 190.878125 33.858676 
L 194.501502 34.124522 
L 198.124878 29.278246 
L 201.748255 33.901551 
L 205.371631 34.022657 
L 208.995008 31.416891 
L 212.618385 32.468961 
L 216.241761 32.661952 
L 219.865138 30.016517 
L 223.488515 31.415917 
L 227.111891 33.692325 
L 230.735268 32.417015 
L 234.358644 31.883456 
L 237.982021 33.164188 
L 241.605398 31.678992 
L 245.228774 31.379492 
L 248.852151 33.542616 
L 252.475528 33.783837 
L 256.098904 33.15697 
L 259.722281 32.379145 
L 263.345657 34.1891 
L 266.969034 33.871016 
L 270.592411 34.518129 
L 274.215787 31.954274 
L 277.839164 32.555607 
L 281.462541 32.2177 
L 285.085917 33.75165 
L 288.709294 33.280581 
L 292.33267 32.470146 
L 295.956047 32.899633 
L 299.579424 32.877567 
L 303.2028 31.980544 
L 306.826177 32.743117 
L 310.449554 29.402217 
L 314.07293 34.089535 
L 317.696307 34.280266 
" style="fill:none;stroke:#2a788e;stroke-linecap:square;stroke-width:1.5;"/>
   </g>
   <g id="line2d_17">
    <path clip-path="url(#p1b93fd8c23)" d="M 64.059943 97.291897 
L 67.68332 94.769378 
L 71.306696 85.127918 
L 74.930073 82.827212 
L 78.55345 82.722304 
L 82.176826 74.162623 
L 85.800203 88.890944 
L 89.42358 87.629865 
L 93.046956 57.108245 
L 96.670333 54.513319 
L 100.293709 83.032286 
L 103.917086 68.107481 
L 107.540463 47.806516 
L 111.163839 58.121887 
L 114.787216 52.009923 
L 118.410593 56.300534 
L 122.033969 49.528306 
L 125.657346 53.898839 
L 129.280722 52.695225 
L 132.904099 51.147953 
L 136.527476 53.422217 
L 140.150852 53.61684 
L 143.774229 54.817856 
L 147.397606 51.287192 
L 151.020982 53.312193 
L 154.644359 53.686489 
L 158.267735 49.0837 
L 161.891112 50.218238 
L 165.514489 50.478152 
L 169.137865 52.363745 
L 172.761242 51.480655 
L 176.384619 53.442894 
L 180.007995 48.465595 
L 183.631372 48.115583 
L 187.254748 53.666706 
L 190.878125 50.405653 
L 194.501502 50.502427 
L 198.124878 51.194188 
L 201.748255 47.919943 
L 205.371631 48.137233 
L 208.995008 49.545322 
L 212.618385 49.301553 
L 216.241761 46.23151 
L 219.865138 55.667354 
L 223.488515 53.551943 
L 227.111891 54.72262 
L 230.735268 51.857793 
L 234.358644 55.782712 
L 237.982021 45.486742 
L 241.605398 50.371064 
L 245.228774 49.975541 
L 248.852151 52.796973 
L 252.475528 54.882154 
L 256.098904 51.593753 
L 259.722281 48.940239 
L 263.345657 51.140854 
L 266.969034 54.879236 
L 270.592411 50.755955 
L 274.215787 48.654493 
L 277.839164 50.041871 
L 281.462541 52.570503 
L 285.085917 51.023913 
L 288.709294 51.70367 
L 292.33267 46.66352 
L 295.956047 50.908227 
L 299.579424 54.878882 
L 303.2028 50.16896 
L 306.826177 52.933346 
L 310.449554 46.441132 
L 314.07293 51.972991 
L 317.696307 52.266226 
" style="fill:none;stroke:#22a884;stroke-linecap:square;stroke-width:1.5;"/>
   </g>
   <g id="line2d_18">
    <path clip-path="url(#p1b93fd8c23)" d="M 64.059943 100.707601 
L 67.68332 101.82808 
L 71.306696 108.26306 
L 74.930073 103.527349 
L 78.55345 103.915214 
L 82.176826 110.40854 
L 85.800203 118.838992 
L 89.42358 115.076462 
L 93.046956 109.632485 
L 96.670333 118.838253 
L 100.293709 112.8914 
L 103.917086 107.727975 
L 107.540463 97.940398 
L 111.163839 108.438101 
L 114.787216 99.434602 
L 118.410593 119.519179 
L 122.033969 115.307538 
L 125.657346 116.540402 
L 129.280722 115.78574 
L 132.904099 115.234267 
L 136.527476 108.104815 
L 140.150852 111.270768 
L 143.774229 120.311105 
L 147.397606 104.378691 
L 151.020982 115.517261 
L 154.644359 117.724706 
L 158.267735 114.655865 
L 161.891112 109.551977 
L 165.514489 114.498117 
L 169.137865 111.460956 
L 172.761242 104.661504 
L 176.384619 119.610709 
L 180.007995 102.321658 
L 183.631372 123.00366 
L 187.254748 107.349897 
L 190.878125 105.406777 
L 194.501502 109.669498 
L 198.124878 116.588602 
L 201.748255 121.227393 
L 205.371631 110.430198 
L 208.995008 124.048818 
L 212.618385 110.216461 
L 216.241761 111.497198 
L 219.865138 121.021335 
L 223.488515 119.186718 
L 227.111891 110.620802 
L 230.735268 120.029391 
L 234.358644 111.758731 
L 237.982021 118.126432 
L 241.605398 111.607365 
L 245.228774 106.570835 
L 248.852151 115.258213 
L 252.475528 112.482622 
L 256.098904 114.592182 
L 259.722281 118.388052 
L 263.345657 116.034982 
L 266.969034 114.59257 
L 270.592411 120.656858 
L 274.215787 118.735731 
L 277.839164 104.541056 
L 281.462541 114.30832 
L 285.085917 108.585241 
L 288.709294 115.827404 
L 292.33267 115.201004 
L 295.956047 106.462844 
L 299.579424 118.028074 
L 303.2028 105.300143 
L 306.826177 111.594582 
L 310.449554 113.024676 
L 314.07293 103.115891 
L 317.696307 110.474392 
" style="fill:none;stroke:#7ad151;stroke-linecap:square;stroke-width:1.5;"/>
   </g>
   <g id="line2d_19">
    <path clip-path="url(#p1b93fd8c23)" d="M 51.378125 49.048901 
L 330.378125 49.048901 
" style="fill:none;stroke:#000000;stroke-dasharray:5.55,2.4;stroke-dashoffset:0;stroke-width:1.5;"/>
   </g>
   <g id="patch_3">
    <path d="M 51.378125 170.28 
L 51.378125 7.2 
" style="fill:none;stroke:#000000;stroke-linecap:square;stroke-linejoin:miter;stroke-width:0.8;"/>
   </g>
   <g id="patch_4">
    <path d="M 330.378125 170.28 
L 330.378125 7.2 
" style="fill:none;stroke:#000000;stroke-linecap:square;stroke-linejoin:miter;stroke-width:0.8;"/>
   </g>
   <g id="patch_5">
    <path d="M 51.378125 170.28 
L 330.378125 170.28 
" style="fill:none;stroke:#000000;stroke-linecap:square;stroke-linejoin:miter;stroke-width:0.8;"/>
   </g>
   <g id="patch_6">
    <path d="M 51.378125 7.2 
L 330.378125 7.2 
" style="fill:none;stroke:#000000;stroke-linecap:square;stroke-linejoin:miter;stroke-width:0.8;"/>
   </g>
   <g id="legend_1">
    <g id="patch_7">
     <path d="M 259.978125 165.28 
L 323.378125 165.28 
Q 325.378125 165.28 325.378125 163.28 
L 325.378125 90.787813 
Q 325.378125 88.787813 323.378125 88.787813 
L 259.978125 88.787813 
Q 257.978125 88.787813 257.978125 90.787813 
L 257.978125 163.28 
Q 257.978125 165.28 259.978125 165.28 
z
" style="fill:#ffffff;opacity:0.8;stroke:#cccccc;stroke-linejoin:miter;"/>
    </g>
    <g id="line2d_20">
     <path d="M 261.978125 96.88625 
L 281.978125 96.88625 
" style="fill:none;stroke:#440154;stroke-linecap:square;stroke-width:1.5;"/>
    </g>
    <g id="line2d_21"/>
    <g id="text_16">
     <!-- $p=2$ -->
     <g transform="translate(289.978125 100.38625)scale(0.1 -0.1)">
      <defs>
       <path d="M 3175 2156 
Q 3175 2616 2975 2859 
Q 2775 3103 2400 3103 
Q 2144 3103 1911 2972 
Q 1678 2841 1497 2591 
Q 1319 2344 1212 1994 
Q 1106 1644 1106 1300 
Q 1106 863 1306 627 
Q 1506 391 1875 391 
Q 2147 391 2380 519 
Q 2613 647 2778 891 
Q 2956 1147 3065 1494 
Q 3175 1841 3175 2156 
z
M 1394 2969 
Q 1625 3272 1939 3428 
Q 2253 3584 2638 3584 
Q 3175 3584 3472 3232 
Q 3769 2881 3769 2247 
Q 3769 1728 3584 1258 
Q 3400 788 3053 416 
Q 2822 169 2531 39 
Q 2241 -91 1919 -91 
Q 1547 -91 1294 64 
Q 1041 219 916 525 
L 556 -1331 
L -19 -1331 
L 922 3500 
L 1497 3500 
L 1394 2969 
z
" id="DejaVuSans-Oblique-70" transform="scale(0.015625)"/>
       <path d="M 678 2906 
L 4684 2906 
L 4684 2381 
L 678 2381 
L 678 2906 
z
M 678 1631 
L 4684 1631 
L 4684 1100 
L 678 1100 
L 678 1631 
z
" id="DejaVuSans-3d" transform="scale(0.015625)"/>
      </defs>
      <use transform="translate(0 0.78125)" xlink:href="#DejaVuSans-Oblique-70"/>
      <use transform="translate(82.958984 0.78125)" xlink:href="#DejaVuSans-3d"/>
      <use transform="translate(186.230469 0.78125)" xlink:href="#DejaVuSans-32"/>
     </g>
    </g>
    <g id="line2d_22">
     <path d="M 261.978125 111.584688 
L 281.978125 111.584688 
" style="fill:none;stroke:#414487;stroke-linecap:square;stroke-width:1.5;"/>
    </g>
    <g id="line2d_23"/>
    <g id="text_17">
     <!-- $p=6$ -->
     <g transform="translate(289.978125 115.084688)scale(0.1 -0.1)">
      <use transform="translate(0 0.78125)" xlink:href="#DejaVuSans-Oblique-70"/>
      <use transform="translate(82.958984 0.78125)" xlink:href="#DejaVuSans-3d"/>
      <use transform="translate(186.230469 0.78125)" xlink:href="#DejaVuSans-36"/>
     </g>
    </g>
    <g id="line2d_24">
     <path d="M 261.978125 126.283125 
L 281.978125 126.283125 
" style="fill:none;stroke:#2a788e;stroke-linecap:square;stroke-width:1.5;"/>
    </g>
    <g id="line2d_25"/>
    <g id="text_18">
     <!-- $p=10$ -->
     <g transform="translate(289.978125 129.783125)scale(0.1 -0.1)">
      <use transform="translate(0 0.78125)" xlink:href="#DejaVuSans-Oblique-70"/>
      <use transform="translate(82.958984 0.78125)" xlink:href="#DejaVuSans-3d"/>
      <use transform="translate(186.230469 0.78125)" xlink:href="#DejaVuSans-31"/>
      <use transform="translate(249.853516 0.78125)" xlink:href="#DejaVuSans-30"/>
     </g>
    </g>
    <g id="line2d_26">
     <path d="M 261.978125 140.981562 
L 281.978125 140.981562 
" style="fill:none;stroke:#22a884;stroke-linecap:square;stroke-width:1.5;"/>
    </g>
    <g id="line2d_27"/>
    <g id="text_19">
     <!-- $p=14$ -->
     <g transform="translate(289.978125 144.481562)scale(0.1 -0.1)">
      <use transform="translate(0 0.09375)" xlink:href="#DejaVuSans-Oblique-70"/>
      <use transform="translate(82.958984 0.09375)" xlink:href="#DejaVuSans-3d"/>
      <use transform="translate(186.230469 0.09375)" xlink:href="#DejaVuSans-31"/>
      <use transform="translate(249.853516 0.09375)" xlink:href="#DejaVuSans-34"/>
     </g>
    </g>
    <g id="line2d_28">
     <path d="M 261.978125 155.68 
L 281.978125 155.68 
" style="fill:none;stroke:#7ad151;stroke-linecap:square;stroke-width:1.5;"/>
    </g>
    <g id="line2d_29"/>
    <g id="text_20">
     <!-- $p=18$ -->
     <g transform="translate(289.978125 159.18)scale(0.1 -0.1)">
      <use transform="translate(0 0.78125)" xlink:href="#DejaVuSans-Oblique-70"/>
      <use transform="translate(82.958984 0.78125)" xlink:href="#DejaVuSans-3d"/>
      <use transform="translate(186.230469 0.78125)" xlink:href="#DejaVuSans-31"/>
      <use transform="translate(249.853516 0.78125)" xlink:href="#DejaVuSans-38"/>
     </g>
    </g>
   </g>
  </g>
 </g>
 <defs>
  <clipPath id="p1b93fd8c23">
   <rect height="163.08" width="279" x="51.378125" y="7.2"/>
  </clipPath>
 </defs>
</svg>
