<?xml version="1.0" encoding="utf-8" standalone="no"?>
<!DOCTYPE svg PUBLIC "-//W3C//DTD SVG 1.1//EN"
  "http://www.w3.org/Graphics/SVG/1.1/DTD/svg11.dtd">
<svg height="265.571875pt" version="1.1" viewBox="0 0 383.917 265.571875" width="383.917pt" xmlns="http://www.w3.org/2000/svg" xmlns:xlink="http://www.w3.org/1999/xlink">
 <metadata>
  <rdf:RDF xmlns:cc="http://creativecommons.org/ns#" xmlns:dc="http://purl.org/dc/elements/1.1/" xmlns:rdf="http://www.w3.org/1999/02/22-rdf-syntax-ns#">
   <cc:Work>
    <dc:type rdf:resource="http://purl.org/dc/dcmitype/StillImage"/>
    <dc:date>2021-11-09T21:15:01.726672</dc:date>
    <dc:format>image/svg+xml</dc:format>
    <dc:creator>
     <cc:Agent>
      <dc:title>Matplotlib v3.4.2, https://matplotlib.org/</dc:title>
     </cc:Agent>
    </dc:creator>
   </cc:Work>
  </rdf:RDF>
 </metadata>
 <defs>
  <style type="text/css">*{stroke-linecap:butt;stroke-linejoin:round;}</style>
 </defs>
 <g id="figure_1">
  <g id="patch_1">
   <path d="M 0 265.571875 
L 383.917 265.571875 
L 383.917 0 
L 0 0 
z
" style="fill:none;"/>
  </g>
  <g id="axes_1">
   <g id="patch_2">
    <path d="M 61.54 239.758125 
L 329.38 239.758125 
L 329.38 22.318125 
L 61.54 22.318125 
z
" style="fill:#ffffff;"/>
   </g>
   <g id="matplotlib.axis_1">
    <g id="xtick_1">
     <g id="line2d_1">
      <path clip-path="url(#p376d46b6be)" d="M 73.714545 239.758125 
L 73.714545 22.318125 
" style="fill:none;stroke:#b0b0b0;stroke-linecap:square;stroke-width:0.8;"/>
     </g>
     <g id="line2d_2">
      <defs>
       <path d="M 0 0 
L 0 3.5 
" id="mdd04f42b50" style="stroke:#000000;stroke-width:1.5;"/>
      </defs>
      <g>
       <use style="stroke:#000000;stroke-width:1.5;" x="73.714545" xlink:href="#mdd04f42b50" y="239.758125"/>
      </g>
     </g>
     <g id="text_1">
      <!-- 1 -->
      <g transform="translate(69.897045 255.87625)scale(0.12 -0.12)">
       <defs>
        <path d="M 909 0 
L 909 331 
L 1722 331 
L 1722 4213 
L 781 3603 
L 781 4013 
L 1919 4750 
L 2350 4750 
L 2350 331 
L 3163 331 
L 3163 0 
L 909 0 
z
" id="DejaVuSerif-31" transform="scale(0.015625)"/>
       </defs>
       <use xlink:href="#DejaVuSerif-31"/>
      </g>
     </g>
    </g>
    <g id="xtick_2">
     <g id="line2d_3">
      <path clip-path="url(#p376d46b6be)" d="M 225.700682 239.758125 
L 225.700682 22.318125 
" style="fill:none;stroke:#b0b0b0;stroke-linecap:square;stroke-width:0.8;"/>
     </g>
     <g id="line2d_4">
      <g>
       <use style="stroke:#000000;stroke-width:1.5;" x="225.700682" xlink:href="#mdd04f42b50" y="239.758125"/>
      </g>
     </g>
     <g id="text_2">
      <!-- 10 -->
      <g transform="translate(218.065682 255.87625)scale(0.12 -0.12)">
       <defs>
        <path d="M 2034 219 
Q 2513 219 2750 744 
Q 2988 1269 2988 2328 
Q 2988 3391 2750 3916 
Q 2513 4441 2034 4441 
Q 1556 4441 1318 3916 
Q 1081 3391 1081 2328 
Q 1081 1269 1318 744 
Q 1556 219 2034 219 
z
M 2034 -91 
Q 1275 -91 848 546 
Q 422 1184 422 2328 
Q 422 3475 848 4112 
Q 1275 4750 2034 4750 
Q 2797 4750 3222 4112 
Q 3647 3475 3647 2328 
Q 3647 1184 3222 546 
Q 2797 -91 2034 -91 
z
" id="DejaVuSerif-30" transform="scale(0.015625)"/>
       </defs>
       <use xlink:href="#DejaVuSerif-31"/>
       <use x="63.623047" xlink:href="#DejaVuSerif-30"/>
      </g>
     </g>
    </g>
    <g id="xtick_3">
     <g id="line2d_5">
      <defs>
       <path d="M 0 0 
L 0 2 
" id="me8b1528e64" style="stroke:#000000;stroke-width:0.6;"/>
      </defs>
      <g>
       <use style="stroke:#000000;stroke-width:0.6;" x="66.760041" xlink:href="#me8b1528e64" y="239.758125"/>
      </g>
     </g>
    </g>
    <g id="xtick_4">
     <g id="line2d_6">
      <g>
       <use style="stroke:#000000;stroke-width:0.6;" x="119.466932" xlink:href="#me8b1528e64" y="239.758125"/>
      </g>
     </g>
    </g>
    <g id="xtick_5">
     <g id="line2d_7">
      <g>
       <use style="stroke:#000000;stroke-width:0.6;" x="146.230362" xlink:href="#me8b1528e64" y="239.758125"/>
      </g>
     </g>
    </g>
    <g id="xtick_6">
     <g id="line2d_8">
      <g>
       <use style="stroke:#000000;stroke-width:0.6;" x="165.219318" xlink:href="#me8b1528e64" y="239.758125"/>
      </g>
     </g>
    </g>
    <g id="xtick_7">
     <g id="line2d_9">
      <g>
       <use style="stroke:#000000;stroke-width:0.6;" x="179.948296" xlink:href="#me8b1528e64" y="239.758125"/>
      </g>
     </g>
    </g>
    <g id="xtick_8">
     <g id="line2d_10">
      <g>
       <use style="stroke:#000000;stroke-width:0.6;" x="191.982748" xlink:href="#me8b1528e64" y="239.758125"/>
      </g>
     </g>
    </g>
    <g id="xtick_9">
     <g id="line2d_11">
      <g>
       <use style="stroke:#000000;stroke-width:0.6;" x="202.157732" xlink:href="#me8b1528e64" y="239.758125"/>
      </g>
     </g>
    </g>
    <g id="xtick_10">
     <g id="line2d_12">
      <g>
       <use style="stroke:#000000;stroke-width:0.6;" x="210.971704" xlink:href="#me8b1528e64" y="239.758125"/>
      </g>
     </g>
    </g>
    <g id="xtick_11">
     <g id="line2d_13">
      <g>
       <use style="stroke:#000000;stroke-width:0.6;" x="218.746178" xlink:href="#me8b1528e64" y="239.758125"/>
      </g>
     </g>
    </g>
    <g id="xtick_12">
     <g id="line2d_14">
      <g>
       <use style="stroke:#000000;stroke-width:0.6;" x="271.453068" xlink:href="#me8b1528e64" y="239.758125"/>
      </g>
     </g>
    </g>
    <g id="xtick_13">
     <g id="line2d_15">
      <g>
       <use style="stroke:#000000;stroke-width:0.6;" x="298.216499" xlink:href="#me8b1528e64" y="239.758125"/>
      </g>
     </g>
    </g>
    <g id="xtick_14">
     <g id="line2d_16">
      <g>
       <use style="stroke:#000000;stroke-width:0.6;" x="317.205455" xlink:href="#me8b1528e64" y="239.758125"/>
      </g>
     </g>
    </g>
   </g>
   <g id="matplotlib.axis_2">
    <g id="ytick_1">
     <g id="line2d_17">
      <path clip-path="url(#p376d46b6be)" d="M 61.54 203.661876 
L 329.38 203.661876 
" style="fill:none;stroke:#b0b0b0;stroke-linecap:square;stroke-width:0.8;"/>
     </g>
     <g id="line2d_18">
      <defs>
       <path d="M 0 0 
L -3.5 0 
" id="mab95ad0160" style="stroke:#000000;stroke-width:1.5;"/>
      </defs>
      <g>
       <use style="stroke:#000000;stroke-width:1.5;" x="61.54" xlink:href="#mab95ad0160" y="203.661876"/>
      </g>
     </g>
     <g id="text_3">
      <!-- $\mathdefault{10^{-9}}$ -->
      <g transform="translate(26.46 208.220939)scale(0.12 -0.12)">
       <defs>
        <path d="M 678 2259 
L 4684 2259 
L 4684 1753 
L 678 1753 
L 678 2259 
z
" id="DejaVuSerif-2212" transform="scale(0.015625)"/>
        <path d="M 2994 2091 
Q 2784 1856 2512 1740 
Q 2241 1625 1900 1625 
Q 1206 1625 804 2044 
Q 403 2463 403 3188 
Q 403 3897 839 4323 
Q 1275 4750 2003 4750 
Q 2794 4750 3217 4161 
Q 3641 3572 3641 2478 
Q 3641 1253 3137 581 
Q 2634 -91 1722 -91 
Q 1475 -91 1203 -44 
Q 931 3 647 97 
L 647 872 
L 997 872 
Q 1038 556 1241 387 
Q 1444 219 1784 219 
Q 2391 219 2687 676 
Q 2984 1134 2994 2091 
z
M 1978 4441 
Q 1534 4441 1298 4117 
Q 1063 3794 1063 3188 
Q 1063 2581 1298 2256 
Q 1534 1931 1978 1931 
Q 2422 1931 2658 2245 
Q 2894 2559 2894 3150 
Q 2894 3772 2656 4106 
Q 2419 4441 1978 4441 
z
" id="DejaVuSerif-39" transform="scale(0.015625)"/>
       </defs>
       <use transform="translate(0 0.7125)" xlink:href="#DejaVuSerif-31"/>
       <use transform="translate(63.623047 0.7125)" xlink:href="#DejaVuSerif-30"/>
       <use transform="translate(128.154453 37.046875)scale(0.7)" xlink:href="#DejaVuSerif-2212"/>
       <use transform="translate(186.806797 37.046875)scale(0.7)" xlink:href="#DejaVuSerif-39"/>
      </g>
     </g>
    </g>
    <g id="ytick_2">
     <g id="line2d_19">
      <path clip-path="url(#p376d46b6be)" d="M 61.54 165.311203 
L 329.38 165.311203 
" style="fill:none;stroke:#b0b0b0;stroke-linecap:square;stroke-width:0.8;"/>
     </g>
     <g id="line2d_20">
      <g>
       <use style="stroke:#000000;stroke-width:1.5;" x="61.54" xlink:href="#mab95ad0160" y="165.311203"/>
      </g>
     </g>
     <g id="text_4">
      <!-- $\mathdefault{10^{-7}}$ -->
      <g transform="translate(26.46 169.870266)scale(0.12 -0.12)">
       <defs>
        <path d="M 3609 4347 
L 1784 0 
L 1319 0 
L 3059 4153 
L 903 4153 
L 903 3578 
L 538 3578 
L 538 4666 
L 3609 4666 
L 3609 4347 
z
" id="DejaVuSerif-37" transform="scale(0.015625)"/>
       </defs>
       <use transform="translate(0 0.63125)" xlink:href="#DejaVuSerif-31"/>
       <use transform="translate(63.623047 0.63125)" xlink:href="#DejaVuSerif-30"/>
       <use transform="translate(128.154453 36.965625)scale(0.7)" xlink:href="#DejaVuSerif-2212"/>
       <use transform="translate(186.806797 36.965625)scale(0.7)" xlink:href="#DejaVuSerif-37"/>
      </g>
     </g>
    </g>
    <g id="ytick_3">
     <g id="line2d_21">
      <path clip-path="url(#p376d46b6be)" d="M 61.54 126.96053 
L 329.38 126.96053 
" style="fill:none;stroke:#b0b0b0;stroke-linecap:square;stroke-width:0.8;"/>
     </g>
     <g id="line2d_22">
      <g>
       <use style="stroke:#000000;stroke-width:1.5;" x="61.54" xlink:href="#mab95ad0160" y="126.96053"/>
      </g>
     </g>
     <g id="text_5">
      <!-- $\mathdefault{10^{-5}}$ -->
      <g transform="translate(26.46 131.519592)scale(0.12 -0.12)">
       <defs>
        <path d="M 3219 4666 
L 3219 4153 
L 1081 4153 
L 1081 2816 
Q 1244 2928 1461 2984 
Q 1678 3041 1947 3041 
Q 2703 3041 3140 2622 
Q 3578 2203 3578 1478 
Q 3578 738 3136 323 
Q 2694 -91 1894 -91 
Q 1572 -91 1234 -12 
Q 897 66 544 225 
L 544 1131 
L 897 1131 
Q 925 688 1179 453 
Q 1434 219 1894 219 
Q 2388 219 2653 544 
Q 2919 869 2919 1478 
Q 2919 2084 2655 2407 
Q 2391 2731 1894 2731 
Q 1613 2731 1398 2631 
Q 1184 2531 1019 2322 
L 750 2322 
L 750 4666 
L 3219 4666 
z
" id="DejaVuSerif-35" transform="scale(0.015625)"/>
       </defs>
       <use transform="translate(0 0.63125)" xlink:href="#DejaVuSerif-31"/>
       <use transform="translate(63.623047 0.63125)" xlink:href="#DejaVuSerif-30"/>
       <use transform="translate(128.154453 36.965625)scale(0.7)" xlink:href="#DejaVuSerif-2212"/>
       <use transform="translate(186.806797 36.965625)scale(0.7)" xlink:href="#DejaVuSerif-35"/>
      </g>
     </g>
    </g>
    <g id="ytick_4">
     <g id="line2d_23">
      <path clip-path="url(#p376d46b6be)" d="M 61.54 88.609857 
L 329.38 88.609857 
" style="fill:none;stroke:#b0b0b0;stroke-linecap:square;stroke-width:0.8;"/>
     </g>
     <g id="line2d_24">
      <g>
       <use style="stroke:#000000;stroke-width:1.5;" x="61.54" xlink:href="#mab95ad0160" y="88.609857"/>
      </g>
     </g>
     <g id="text_6">
      <!-- $\mathdefault{10^{-3}}$ -->
      <g transform="translate(26.46 93.168919)scale(0.12 -0.12)">
       <defs>
        <path d="M 622 4469 
Q 988 4606 1323 4678 
Q 1659 4750 1953 4750 
Q 2638 4750 3022 4454 
Q 3406 4159 3406 3634 
Q 3406 3213 3140 2930 
Q 2875 2647 2388 2547 
Q 2963 2466 3280 2130 
Q 3597 1794 3597 1259 
Q 3597 606 3158 257 
Q 2719 -91 1894 -91 
Q 1528 -91 1179 -12 
Q 831 66 488 225 
L 488 1131 
L 838 1131 
Q 869 681 1141 450 
Q 1413 219 1906 219 
Q 2384 219 2661 495 
Q 2938 772 2938 1253 
Q 2938 1803 2653 2086 
Q 2369 2369 1819 2369 
L 1522 2369 
L 1522 2688 
L 1678 2688 
Q 2225 2688 2498 2914 
Q 2772 3141 2772 3597 
Q 2772 4006 2547 4223 
Q 2322 4441 1900 4441 
Q 1478 4441 1245 4241 
Q 1013 4041 972 3647 
L 622 3647 
L 622 4469 
z
" id="DejaVuSerif-33" transform="scale(0.015625)"/>
       </defs>
       <use transform="translate(0 0.7125)" xlink:href="#DejaVuSerif-31"/>
       <use transform="translate(63.623047 0.7125)" xlink:href="#DejaVuSerif-30"/>
       <use transform="translate(128.154453 37.046875)scale(0.7)" xlink:href="#DejaVuSerif-2212"/>
       <use transform="translate(186.806797 37.046875)scale(0.7)" xlink:href="#DejaVuSerif-33"/>
      </g>
     </g>
    </g>
    <g id="ytick_5">
     <g id="line2d_25">
      <path clip-path="url(#p376d46b6be)" d="M 61.54 50.259184 
L 329.38 50.259184 
" style="fill:none;stroke:#b0b0b0;stroke-linecap:square;stroke-width:0.8;"/>
     </g>
     <g id="line2d_26">
      <g>
       <use style="stroke:#000000;stroke-width:1.5;" x="61.54" xlink:href="#mab95ad0160" y="50.259184"/>
      </g>
     </g>
     <g id="text_7">
      <!-- $\mathdefault{10^{-1}}$ -->
      <g transform="translate(26.46 54.818246)scale(0.12 -0.12)">
       <use transform="translate(0 0.7125)" xlink:href="#DejaVuSerif-31"/>
       <use transform="translate(63.623047 0.7125)" xlink:href="#DejaVuSerif-30"/>
       <use transform="translate(128.154453 37.046875)scale(0.7)" xlink:href="#DejaVuSerif-2212"/>
       <use transform="translate(186.806797 37.046875)scale(0.7)" xlink:href="#DejaVuSerif-31"/>
      </g>
     </g>
    </g>
    <g id="text_8">
     <!-- $1- \mathcal{F}(t_f,  \vartheta^{(\ell)})$ -->
     <g transform="translate(19.548437 173.318125)rotate(-90)scale(0.14 -0.14)">
      <defs>
       <path d="M 794 531 
L 1825 531 
L 1825 4091 
L 703 3866 
L 703 4441 
L 1819 4666 
L 2450 4666 
L 2450 531 
L 3481 531 
L 3481 0 
L 794 0 
L 794 531 
z
" id="DejaVuSans-31" transform="scale(0.015625)"/>
       <path d="M 678 2272 
L 4684 2272 
L 4684 1741 
L 678 1741 
L 678 2272 
z
" id="DejaVuSans-2212" transform="scale(0.015625)"/>
       <path d="M 378 3418 
L 275 3533 
Q 730 3955 1174 4096 
Q 1619 4237 2163 4237 
Q 2714 4237 3110 4208 
Q 3507 4179 3849 4099 
Q 4192 4019 4368 3868 
Q 4544 3718 4544 3488 
Q 4544 3270 4429 3123 
Q 4314 2976 4109 2976 
Q 3962 2976 3853 3062 
Q 3744 3149 3744 3277 
Q 3744 3398 3792 3465 
Q 3840 3533 3897 3549 
Q 3955 3565 4000 3593 
Q 4045 3622 4045 3680 
Q 4045 3808 3696 3894 
Q 3347 3981 2893 3981 
Q 2694 3981 2608 3920 
Q 2522 3859 2464 3667 
L 2099 2413 
L 3494 2413 
L 3411 2157 
L 2029 2157 
L 1747 1203 
Q 1626 787 1491 537 
Q 1357 288 1174 173 
Q 992 58 829 29 
Q 666 0 384 0 
L 435 154 
Q 608 154 726 288 
Q 845 422 934 742 
L 1690 3334 
Q 1754 3558 1754 3667 
Q 1754 3776 1690 3827 
Q 1626 3878 1459 3878 
Q 858 3878 378 3418 
z
" id="STIXNonUnicode-Italic-e232" transform="scale(0.015625)"/>
       <path d="M 1984 4856 
Q 1566 4138 1362 3434 
Q 1159 2731 1159 2009 
Q 1159 1288 1364 580 
Q 1569 -128 1984 -844 
L 1484 -844 
Q 1016 -109 783 600 
Q 550 1309 550 2009 
Q 550 2706 781 3412 
Q 1013 4119 1484 4856 
L 1984 4856 
z
" id="DejaVuSans-28" transform="scale(0.015625)"/>
       <path d="M 2706 3500 
L 2619 3053 
L 1472 3053 
L 1100 1153 
Q 1081 1047 1072 975 
Q 1063 903 1063 863 
Q 1063 663 1183 572 
Q 1303 481 1569 481 
L 2150 481 
L 2053 0 
L 1503 0 
Q 991 0 739 200 
Q 488 400 488 806 
Q 488 878 497 964 
Q 506 1050 525 1153 
L 897 3053 
L 409 3053 
L 500 3500 
L 978 3500 
L 1172 4494 
L 1747 4494 
L 1556 3500 
L 2706 3500 
z
" id="DejaVuSans-Oblique-74" transform="scale(0.015625)"/>
       <path d="M 3059 4863 
L 2969 4384 
L 2419 4384 
Q 2106 4384 1964 4261 
Q 1822 4138 1753 3809 
L 1691 3500 
L 2638 3500 
L 2553 3053 
L 1606 3053 
L 1013 0 
L 434 0 
L 1031 3053 
L 481 3053 
L 563 3500 
L 1113 3500 
L 1159 3744 
Q 1278 4363 1576 4613 
Q 1875 4863 2516 4863 
L 3059 4863 
z
" id="DejaVuSans-Oblique-66" transform="scale(0.015625)"/>
       <path d="M 750 794 
L 1409 794 
L 1409 256 
L 897 -744 
L 494 -744 
L 750 256 
L 750 794 
z
" id="DejaVuSans-2c" transform="scale(0.015625)"/>
       <path d="M 3009 2750 
Q 3178 3519 3081 3913 
Q 2950 4444 2513 4444 
Q 2253 4444 2009 4222 
Q 1794 4016 1741 3734 
Q 1647 3256 1959 2922 
Q 2150 2719 3009 2750 
z
M 2913 2219 
Q 1944 2191 1581 2422 
Q 994 2797 1175 3719 
Q 1272 4219 1663 4563 
Q 2056 4913 2603 4913 
Q 3256 4913 3550 4250 
Q 3828 3625 3566 2422 
Q 3303 1213 2781 594 
Q 2225 -72 1475 -72 
Q 734 -72 425 594 
Q 97 1297 419 2753 
L 1028 2750 
Q 694 1556 928 884 
Q 1100 400 1566 400 
Q 2016 400 2391 888 
Q 2788 1406 2913 2219 
z
" id="DejaVuSans-Oblique-3d1" transform="scale(0.015625)"/>
       <path d="M 950 838 
Q 1078 213 1350 213 
Q 1531 213 1766 572 
L 2181 572 
Q 1994 253 1775 88 
Q 1538 -91 1319 -91 
Q 831 -91 634 344 
L 400 0 
L -88 0 
Q 250 459 500 888 
Q 469 1131 469 1397 
Q 469 1872 566 2347 
Q 931 4131 1256 4497 
Q 1481 4750 1866 4750 
Q 2256 4750 2256 4209 
Q 2253 3966 2197 3675 
Q 1972 2484 950 838 
z
M 947 1656 
Q 1531 2744 1709 3613 
Q 1803 4072 1803 4191 
Q 1803 4406 1725 4406 
Q 1384 4134 1081 2516 
Q 997 2063 947 1656 
z
" id="DejaVuSans-Oblique-2113" transform="scale(0.015625)"/>
       <path d="M 513 4856 
L 1013 4856 
Q 1481 4119 1714 3412 
Q 1947 2706 1947 2009 
Q 1947 1309 1714 600 
Q 1481 -109 1013 -844 
L 513 -844 
Q 928 -128 1133 580 
Q 1338 1288 1338 2009 
Q 1338 2731 1133 3434 
Q 928 4138 513 4856 
z
" id="DejaVuSans-29" transform="scale(0.015625)"/>
      </defs>
      <use transform="translate(0 0.60625)" xlink:href="#DejaVuSans-31"/>
      <use transform="translate(83.105469 0.60625)" xlink:href="#DejaVuSans-2212"/>
      <use transform="translate(186.376953 0.60625)" xlink:href="#STIXNonUnicode-Italic-e232"/>
      <use transform="translate(251.57695 0.60625)" xlink:href="#DejaVuSans-28"/>
      <use transform="translate(290.590622 0.60625)" xlink:href="#DejaVuSans-Oblique-74"/>
      <use transform="translate(329.799606 -15.8)scale(0.7)" xlink:href="#DejaVuSans-Oblique-66"/>
      <use transform="translate(357.177536 0.60625)" xlink:href="#DejaVuSans-2c"/>
      <use transform="translate(408.447067 0.60625)" xlink:href="#DejaVuSans-Oblique-3d1"/>
      <use transform="translate(477.918213 38.8875)scale(0.7)" xlink:href="#DejaVuSans-28"/>
      <use transform="translate(505.227783 38.8875)scale(0.7)" xlink:href="#DejaVuSans-Oblique-2113"/>
      <use transform="translate(534.143799 38.8875)scale(0.7)" xlink:href="#DejaVuSans-29"/>
      <use transform="translate(564.187744 0.60625)" xlink:href="#DejaVuSans-29"/>
     </g>
    </g>
   </g>
   <g id="line2d_27">
    <path clip-path="url(#p376d46b6be)" d="M 73.714545 217.944004 
L 119.466932 227.261889 
L 146.230362 229.874489 
" style="fill:none;stroke:#440154;stroke-linecap:square;stroke-width:2;"/>
   </g>
   <g id="line2d_28">
    <path clip-path="url(#p376d46b6be)" d="M 73.714545 87.304859 
L 119.466932 102.672154 
L 146.230362 148.236605 
L 165.219318 204.940176 
" style="fill:none;stroke:#472f7d;stroke-linecap:square;stroke-width:2;"/>
   </g>
   <g id="line2d_29">
    <path clip-path="url(#p376d46b6be)" d="M 73.714545 37.478608 
L 119.466932 49.174361 
L 146.230362 74.829455 
L 165.219318 187.367902 
L 179.948296 190.567943 
" style="fill:none;stroke:#38588c;stroke-linecap:square;stroke-width:2;"/>
   </g>
   <g id="line2d_30">
    <path clip-path="url(#p376d46b6be)" d="M 73.714545 34.848465 
L 119.466932 40.086781 
L 146.230362 45.816762 
L 165.219318 55.598597 
L 179.948296 69.707713 
L 191.982748 112.003754 
L 202.157732 173.547228 
" style="fill:none;stroke:#297a8e;stroke-linecap:square;stroke-width:2;"/>
   </g>
   <g id="line2d_31">
    <path clip-path="url(#p376d46b6be)" d="M 73.714545 34.77889 
L 119.466932 36.712971 
L 146.230362 39.513105 
L 165.219318 43.835721 
L 179.948296 48.577524 
L 191.982748 56.877993 
L 202.157732 63.73817 
L 210.971704 75.985838 
L 218.746178 101.752951 
L 225.700682 158.616342 
" style="fill:none;stroke:#1f9a8a;stroke-linecap:square;stroke-width:2;"/>
   </g>
   <g id="line2d_32">
    <path clip-path="url(#p376d46b6be)" d="M 73.714545 33.379463 
L 119.466932 35.737008 
L 146.230362 37.824665 
L 165.219318 40.464788 
L 179.948296 42.460898 
L 191.982748 44.347005 
L 202.157732 46.009857 
L 210.971704 47.88198 
L 218.746178 50.97207 
L 225.700682 54.372221 
L 231.991797 59.701184 
L 237.735134 63.11081 
L 243.018492 68.828835 
L 247.910118 76.280715 
L 252.464113 86.524098 
L 256.72409 101.625889 
L 260.725724 126.086817 
" style="fill:none;stroke:#3aba76;stroke-linecap:square;stroke-width:2;"/>
   </g>
   <g id="line2d_33">
    <path clip-path="url(#p376d46b6be)" d="M 73.714545 32.449228 
L 119.466932 33.765689 
L 146.230362 35.047394 
L 165.219318 35.910019 
L 179.948296 37.355973 
L 191.982748 38.430902 
L 202.157732 39.571294 
L 210.971704 41.038932 
L 218.746178 42.633407 
L 225.700682 44.680977 
L 231.991797 45.939198 
L 237.735134 47.656058 
L 243.018492 49.306075 
L 247.910118 51.254029 
L 252.464113 53.443497 
L 256.72409 55.87845 
L 260.725724 58.10327 
L 264.498564 60.505692 
L 268.067365 63.621234 
L 271.453068 66.341032 
L 274.673548 72.24514 
L 277.744183 76.438643 
L 280.678299 80.820123 
L 283.48752 87.567043 
L 286.182047 96.086662 
" style="fill:none;stroke:#84d44b;stroke-linecap:square;stroke-width:2;"/>
   </g>
   <g id="line2d_34">
    <path clip-path="url(#p376d46b6be)" d="M 73.714545 32.201761 
L 119.466932 33.366189 
L 146.230362 34.953622 
L 165.219318 35.869865 
L 179.948296 36.987727 
L 191.982748 38.196562 
L 202.157732 39.042483 
L 210.971704 40.1977 
L 218.746178 40.957492 
L 225.700682 41.117623 
L 231.991797 41.565522 
L 237.735134 40.487045 
L 243.018492 42.285724 
L 247.910118 41.98393 
L 252.464113 42.305647 
L 256.72409 43.216386 
L 260.725724 43.810898 
L 264.498564 45.239075 
L 268.067365 45.356836 
L 271.453068 47.16058 
L 274.673548 47.203529 
L 277.744183 47.937357 
L 280.678299 48.990611 
L 283.48752 49.633654 
L 286.182047 51.927922 
L 288.770878 53.08291 
L 291.261994 53.600164 
L 293.662504 54.506817 
L 295.978768 55.316982 
L 298.216499 55.920689 
L 300.380848 58.929053 
L 302.476476 59.230874 
L 304.507613 61.890396 
L 306.47811 62.926909 
L 308.391483 64.852553 
L 310.25095 67.55752 
L 312.059467 69.366788 
L 313.819751 70.655735 
L 315.534309 71.373984 
L 317.205455 74.434989 
" style="fill:none;stroke:#dfe318;stroke-linecap:square;stroke-width:2;"/>
   </g>
   <g id="line2d_35">
    <path clip-path="url(#p376d46b6be)" d="M 61.54 75.206872 
L 329.38 75.206872 
" style="fill:none;stroke:#000000;stroke-dasharray:5.55,2.4;stroke-dashoffset:0;stroke-width:1.5;"/>
   </g>
   <g id="patch_3">
    <path d="M 61.54 239.758125 
L 61.54 22.318125 
" style="fill:none;stroke:#000000;stroke-linecap:square;stroke-linejoin:miter;stroke-width:1.3;"/>
   </g>
   <g id="patch_4">
    <path d="M 329.38 239.758125 
L 329.38 22.318125 
" style="fill:none;stroke:#000000;stroke-linecap:square;stroke-linejoin:miter;stroke-width:1.3;"/>
   </g>
   <g id="patch_5">
    <path d="M 61.54 239.758125 
L 329.38 239.758125 
" style="fill:none;stroke:#000000;stroke-linecap:square;stroke-linejoin:miter;stroke-width:1.3;"/>
   </g>
   <g id="patch_6">
    <path d="M 61.54 22.318125 
L 329.38 22.318125 
" style="fill:none;stroke:#000000;stroke-linecap:square;stroke-linejoin:miter;stroke-width:1.3;"/>
   </g>
  </g>
  <g id="axes_2">
   <g id="patch_7">
    <path d="M 346.12 239.758125 
L 356.992 239.758125 
L 356.992 22.318125 
L 346.12 22.318125 
z
" style="fill:#ffffff;"/>
   </g>
   <g id="patch_8">
    <path clip-path="url(#pa08209fa0c)" d="M 346.12 239.758125 
L 346.12 215.598125 
L 346.12 46.478125 
L 346.12 22.318125 
L 356.992 22.318125 
L 356.992 46.478125 
L 356.992 215.598125 
L 356.992 239.758125 
L 356.992 239.758125 
z
" style="fill:#ffffff;stroke:#ffffff;stroke-linejoin:miter;stroke-width:0.01;"/>
   </g>
   <g id="QuadMesh_1">
    <path clip-path="url(#pa08209fa0c)" d="M 346.12 239.758125 
L 356.992 239.758125 
L 356.992 215.598125 
L 346.12 215.598125 
L 346.12 239.758125 
" style="fill:#440154;"/>
    <path clip-path="url(#pa08209fa0c)" d="M 346.12 215.598125 
L 356.992 215.598125 
L 356.992 191.438125 
L 346.12 191.438125 
L 346.12 215.598125 
" style="fill:#482979;"/>
    <path clip-path="url(#pa08209fa0c)" d="M 346.12 191.438125 
L 356.992 191.438125 
L 356.992 167.278125 
L 346.12 167.278125 
L 346.12 191.438125 
" style="fill:#3d4d8a;"/>
    <path clip-path="url(#pa08209fa0c)" d="M 346.12 167.278125 
L 356.992 167.278125 
L 356.992 143.118125 
L 346.12 143.118125 
L 346.12 167.278125 
" style="fill:#2f6c8e;"/>
    <path clip-path="url(#pa08209fa0c)" d="M 346.12 143.118125 
L 356.992 143.118125 
L 356.992 118.958125 
L 346.12 118.958125 
L 346.12 143.118125 
" style="fill:#23888e;"/>
    <path clip-path="url(#pa08209fa0c)" d="M 346.12 118.958125 
L 356.992 118.958125 
L 356.992 94.798125 
L 346.12 94.798125 
L 346.12 118.958125 
" style="fill:#20a486;"/>
    <path clip-path="url(#pa08209fa0c)" d="M 346.12 94.798125 
L 356.992 94.798125 
L 356.992 70.638125 
L 346.12 70.638125 
L 346.12 94.798125 
" style="fill:#44bf70;"/>
    <path clip-path="url(#pa08209fa0c)" d="M 346.12 70.638125 
L 356.992 70.638125 
L 356.992 46.478125 
L 346.12 46.478125 
L 346.12 70.638125 
" style="fill:#86d549;"/>
    <path clip-path="url(#pa08209fa0c)" d="M 346.12 46.478125 
L 356.992 46.478125 
L 356.992 22.318125 
L 346.12 22.318125 
L 346.12 46.478125 
" style="fill:#d5e21a;"/>
   </g>
   <g id="matplotlib.axis_3"/>
   <g id="matplotlib.axis_4">
    <g id="ytick_6">
     <g id="line2d_36">
      <defs>
       <path d="M 0 0 
L 3.5 0 
" id="m728911ec58" style="stroke:#000000;stroke-width:0.8;"/>
      </defs>
      <g>
       <use style="stroke:#000000;stroke-width:0.8;" x="356.992" xlink:href="#m728911ec58" y="239.758125"/>
      </g>
     </g>
     <g id="text_9">
      <!-- 1 -->
      <g transform="translate(363.992 243.557344)scale(0.1 -0.1)">
       <use xlink:href="#DejaVuSerif-31"/>
      </g>
     </g>
    </g>
    <g id="ytick_7">
     <g id="line2d_37">
      <g>
       <use style="stroke:#000000;stroke-width:0.8;" x="356.992" xlink:href="#m728911ec58" y="215.598125"/>
      </g>
     </g>
     <g id="text_10">
      <!-- 2 -->
      <g transform="translate(363.992 219.397344)scale(0.1 -0.1)">
       <defs>
        <path d="M 819 3553 
L 469 3553 
L 469 4384 
Q 803 4563 1142 4656 
Q 1481 4750 1806 4750 
Q 2534 4750 2956 4397 
Q 3378 4044 3378 3438 
Q 3378 2753 2422 1800 
Q 2347 1728 2309 1691 
L 1131 513 
L 3078 513 
L 3078 1088 
L 3444 1088 
L 3444 0 
L 434 0 
L 434 341 
L 1850 1753 
Q 2319 2222 2519 2614 
Q 2719 3006 2719 3438 
Q 2719 3909 2473 4175 
Q 2228 4441 1797 4441 
Q 1350 4441 1106 4219 
Q 863 3997 819 3553 
z
" id="DejaVuSerif-32" transform="scale(0.015625)"/>
       </defs>
       <use xlink:href="#DejaVuSerif-32"/>
      </g>
     </g>
    </g>
    <g id="ytick_8">
     <g id="line2d_38">
      <g>
       <use style="stroke:#000000;stroke-width:0.8;" x="356.992" xlink:href="#m728911ec58" y="191.438125"/>
      </g>
     </g>
     <g id="text_11">
      <!-- 3 -->
      <g transform="translate(363.992 195.237344)scale(0.1 -0.1)">
       <use xlink:href="#DejaVuSerif-33"/>
      </g>
     </g>
    </g>
    <g id="ytick_9">
     <g id="line2d_39">
      <g>
       <use style="stroke:#000000;stroke-width:0.8;" x="356.992" xlink:href="#m728911ec58" y="167.278125"/>
      </g>
     </g>
     <g id="text_12">
      <!-- 4 -->
      <g transform="translate(363.992 171.077344)scale(0.1 -0.1)">
       <defs>
        <path d="M 2234 1581 
L 2234 4063 
L 641 1581 
L 2234 1581 
z
M 3609 0 
L 1484 0 
L 1484 331 
L 2234 331 
L 2234 1247 
L 197 1247 
L 197 1588 
L 2241 4750 
L 2859 4750 
L 2859 1581 
L 3750 1581 
L 3750 1247 
L 2859 1247 
L 2859 331 
L 3609 331 
L 3609 0 
z
" id="DejaVuSerif-34" transform="scale(0.015625)"/>
       </defs>
       <use xlink:href="#DejaVuSerif-34"/>
      </g>
     </g>
    </g>
    <g id="ytick_10">
     <g id="line2d_40">
      <g>
       <use style="stroke:#000000;stroke-width:0.8;" x="356.992" xlink:href="#m728911ec58" y="143.118125"/>
      </g>
     </g>
     <g id="text_13">
      <!-- 5 -->
      <g transform="translate(363.992 146.917344)scale(0.1 -0.1)">
       <use xlink:href="#DejaVuSerif-35"/>
      </g>
     </g>
    </g>
    <g id="ytick_11">
     <g id="line2d_41">
      <g>
       <use style="stroke:#000000;stroke-width:0.8;" x="356.992" xlink:href="#m728911ec58" y="118.958125"/>
      </g>
     </g>
     <g id="text_14">
      <!-- 6 -->
      <g transform="translate(363.992 122.757344)scale(0.1 -0.1)">
       <defs>
        <path d="M 2094 219 
Q 2534 219 2771 542 
Q 3009 866 3009 1472 
Q 3009 2078 2771 2401 
Q 2534 2725 2094 2725 
Q 1647 2725 1412 2412 
Q 1178 2100 1178 1509 
Q 1178 888 1415 553 
Q 1653 219 2094 219 
z
M 1075 2569 
Q 1288 2803 1556 2918 
Q 1825 3034 2163 3034 
Q 2859 3034 3264 2615 
Q 3669 2197 3669 1472 
Q 3669 763 3233 336 
Q 2797 -91 2069 -91 
Q 1278 -91 853 498 
Q 428 1088 428 2181 
Q 428 3406 931 4078 
Q 1434 4750 2350 4750 
Q 2597 4750 2869 4703 
Q 3141 4656 3425 4563 
L 3425 3794 
L 3072 3794 
Q 3034 4109 2831 4275 
Q 2628 4441 2284 4441 
Q 1678 4441 1381 3981 
Q 1084 3522 1075 2569 
z
" id="DejaVuSerif-36" transform="scale(0.015625)"/>
       </defs>
       <use xlink:href="#DejaVuSerif-36"/>
      </g>
     </g>
    </g>
    <g id="ytick_12">
     <g id="line2d_42">
      <g>
       <use style="stroke:#000000;stroke-width:0.8;" x="356.992" xlink:href="#m728911ec58" y="94.798125"/>
      </g>
     </g>
     <g id="text_15">
      <!-- 7 -->
      <g transform="translate(363.992 98.597344)scale(0.1 -0.1)">
       <use xlink:href="#DejaVuSerif-37"/>
      </g>
     </g>
    </g>
    <g id="ytick_13">
     <g id="line2d_43">
      <g>
       <use style="stroke:#000000;stroke-width:0.8;" x="356.992" xlink:href="#m728911ec58" y="70.638125"/>
      </g>
     </g>
     <g id="text_16">
      <!-- 8 -->
      <g transform="translate(363.992 74.437344)scale(0.1 -0.1)">
       <defs>
        <path d="M 2981 1275 
Q 2981 1775 2732 2051 
Q 2484 2328 2034 2328 
Q 1584 2328 1336 2051 
Q 1088 1775 1088 1275 
Q 1088 772 1336 495 
Q 1584 219 2034 219 
Q 2484 219 2732 495 
Q 2981 772 2981 1275 
z
M 2853 3541 
Q 2853 3966 2637 4203 
Q 2422 4441 2034 4441 
Q 1650 4441 1433 4203 
Q 1216 3966 1216 3541 
Q 1216 3113 1433 2875 
Q 1650 2638 2034 2638 
Q 2422 2638 2637 2875 
Q 2853 3113 2853 3541 
z
M 2516 2484 
Q 3047 2413 3344 2092 
Q 3641 1772 3641 1275 
Q 3641 619 3225 264 
Q 2809 -91 2034 -91 
Q 1263 -91 845 264 
Q 428 619 428 1275 
Q 428 1772 725 2092 
Q 1022 2413 1556 2484 
Q 1084 2569 832 2842 
Q 581 3116 581 3541 
Q 581 4103 968 4426 
Q 1356 4750 2034 4750 
Q 2713 4750 3100 4426 
Q 3488 4103 3488 3541 
Q 3488 3116 3236 2842 
Q 2984 2569 2516 2484 
z
" id="DejaVuSerif-38" transform="scale(0.015625)"/>
       </defs>
       <use xlink:href="#DejaVuSerif-38"/>
      </g>
     </g>
    </g>
    <g id="ytick_14">
     <g id="line2d_44">
      <g>
       <use style="stroke:#000000;stroke-width:0.8;" x="356.992" xlink:href="#m728911ec58" y="46.478125"/>
      </g>
     </g>
     <g id="text_17">
      <!-- 9 -->
      <g transform="translate(363.992 50.277344)scale(0.1 -0.1)">
       <use xlink:href="#DejaVuSerif-39"/>
      </g>
     </g>
    </g>
    <g id="ytick_15">
     <g id="line2d_45">
      <g>
       <use style="stroke:#000000;stroke-width:0.8;" x="356.992" xlink:href="#m728911ec58" y="22.318125"/>
      </g>
     </g>
     <g id="text_18">
      <!-- 10 -->
      <g transform="translate(363.992 26.117344)scale(0.1 -0.1)">
       <use xlink:href="#DejaVuSerif-31"/>
       <use x="63.623047" xlink:href="#DejaVuSerif-30"/>
      </g>
     </g>
    </g>
   </g>
   <g id="LineCollection_1"/>
   <g id="patch_9">
    <path d="M 346.12 239.758125 
L 346.12 215.598125 
L 346.12 46.478125 
L 346.12 22.318125 
L 356.992 22.318125 
L 356.992 46.478125 
L 356.992 215.598125 
L 356.992 239.758125 
z
" style="fill:none;stroke:#000000;stroke-linecap:square;stroke-linejoin:miter;stroke-width:0.8;"/>
   </g>
   <g id="text_19">
    <!-- L -->
    <g transform="translate(347.571625 16.318125)scale(0.12 -0.12)">
     <defs>
      <path d="M 353 0 
L 353 331 
L 947 331 
L 947 4331 
L 353 4331 
L 353 4666 
L 2175 4666 
L 2175 4331 
L 1581 4331 
L 1581 384 
L 3713 384 
L 3713 1166 
L 4097 1166 
L 4097 0 
L 353 0 
z
" id="DejaVuSerif-4c" transform="scale(0.015625)"/>
     </defs>
     <use xlink:href="#DejaVuSerif-4c"/>
    </g>
   </g>
  </g>
  <g id="axes_3">
   <g id="patch_10">
    <path d="M 253.78 229.678125 
L 322.9 229.678125 
L 322.9 154.798125 
L 253.78 154.798125 
z
" style="fill:#ffffff;"/>
   </g>
   <g id="matplotlib.axis_5">
    <g id="xtick_15"/>
    <g id="xtick_16"/>
   </g>
   <g id="matplotlib.axis_6">
    <g id="ytick_16"/>
    <g id="ytick_17"/>
    <g id="ytick_18"/>
   </g>
   <g id="line2d_46">
    <path clip-path="url(#pee7153442e)" d="M 256.921818 226.274489 
L 319.758182 158.201761 
" style="fill:none;stroke:#d1d1d1;stroke-dasharray:2.775,1.2;stroke-dashoffset:0;stroke-width:0.75;"/>
   </g>
   <g id="line2d_47">
    <path clip-path="url(#pee7153442e)" d="M 256.921818 226.274489 
L 319.758182 158.201761 
" style="fill:none;stroke:#d1d1d1;stroke-dasharray:2.775,1.2;stroke-dashoffset:0;stroke-width:0.75;"/>
   </g>
   <g id="patch_11">
    <path d="M 253.78 229.678125 
L 253.78 154.798125 
" style="fill:none;stroke:#000000;stroke-linecap:square;stroke-linejoin:miter;stroke-width:0.8;"/>
   </g>
   <g id="patch_12">
    <path d="M 322.9 229.678125 
L 322.9 154.798125 
" style="fill:none;stroke:#000000;stroke-linecap:square;stroke-linejoin:miter;stroke-width:0.8;"/>
   </g>
   <g id="patch_13">
    <path d="M 253.78 229.678125 
L 322.9 229.678125 
" style="fill:none;stroke:#000000;stroke-linecap:square;stroke-linejoin:miter;stroke-width:0.8;"/>
   </g>
   <g id="patch_14">
    <path d="M 253.78 154.798125 
L 322.9 154.798125 
" style="fill:none;stroke:#000000;stroke-linecap:square;stroke-linejoin:miter;stroke-width:0.8;"/>
   </g>
  </g>
  <g id="axes_4">
   <g id="patch_15">
    <path d="M 253.78 229.678125 
L 322.9 229.678125 
L 322.9 154.798125 
L 253.78 154.798125 
z
" style="fill:none;opacity:0;"/>
   </g>
   <g id="PathCollection_1">
    <defs>
     <path d="M 0 1.224745 
C 0.324806 1.224745 0.636353 1.095698 0.866025 0.866025 
C 1.095698 0.636353 1.224745 0.324806 1.224745 0 
C 1.224745 -0.324806 1.095698 -0.636353 0.866025 -0.866025 
C 0.636353 -1.095698 0.324806 -1.224745 0 -1.224745 
C -0.324806 -1.224745 -0.636353 -1.095698 -0.866025 -0.866025 
C -1.095698 -0.636353 -1.224745 -0.324806 -1.224745 0 
C -1.224745 0.324806 -1.095698 0.636353 -0.866025 0.866025 
C -0.636353 1.095698 -0.324806 1.224745 0 1.224745 
z
" id="m14feb1d488" style="stroke:#000000;"/>
    </defs>
    <g clip-path="url(#pee7153442e)">
     <use style="stroke:#000000;" x="256.921818" xlink:href="#m14feb1d488" y="226.274489"/>
     <use style="stroke:#000000;" x="263.903636" xlink:href="#m14feb1d488" y="226.274489"/>
     <use style="stroke:#000000;" x="270.885455" xlink:href="#m14feb1d488" y="210.653462"/>
     <use style="stroke:#000000;" x="277.867273" xlink:href="#m14feb1d488" y="200.797692"/>
     <use style="stroke:#000000;" x="284.849091" xlink:href="#m14feb1d488" y="196.707178"/>
     <use style="stroke:#000000;" x="291.830909" xlink:href="#m14feb1d488" y="188.750073"/>
     <use style="stroke:#000000;" x="298.812727" xlink:href="#m14feb1d488" y="182.323355"/>
     <use style="stroke:#000000;" x="305.794545" xlink:href="#m14feb1d488" y="173.471687"/>
    </g>
   </g>
   <g id="matplotlib.axis_7">
    <g id="xtick_17">
     <g id="line2d_48">
      <defs>
       <path d="M 0 0 
L 0 -3.5 
" id="m4da3175541" style="stroke:#000000;stroke-width:0.8;"/>
      </defs>
      <g>
       <use style="stroke:#000000;stroke-width:0.8;" x="270.885455" xlink:href="#m4da3175541" y="154.798125"/>
      </g>
     </g>
     <g id="text_20">
      <!-- 5 -->
      <g transform="translate(267.704205 145.718438)scale(0.1 -0.1)">
       <use xlink:href="#DejaVuSerif-35"/>
      </g>
     </g>
    </g>
    <g id="xtick_18">
     <g id="line2d_49">
      <g>
       <use style="stroke:#000000;stroke-width:0.8;" x="305.794545" xlink:href="#m4da3175541" y="154.798125"/>
      </g>
     </g>
     <g id="text_21">
      <!-- 10 -->
      <g transform="translate(299.432045 145.718438)scale(0.1 -0.1)">
       <use xlink:href="#DejaVuSerif-31"/>
       <use x="63.623047" xlink:href="#DejaVuSerif-30"/>
      </g>
     </g>
    </g>
    <g id="text_22">
     <!-- L -->
     <g transform="translate(284.355625 134.12)scale(0.12 -0.12)">
      <use xlink:href="#DejaVuSerif-4c"/>
     </g>
    </g>
   </g>
   <g id="matplotlib.axis_8">
    <g id="ytick_19">
     <g id="line2d_50">
      <defs>
       <path d="M 0 0 
L -3.5 0 
" id="mf7c5134756" style="stroke:#000000;stroke-width:0.8;"/>
      </defs>
      <g>
       <use style="stroke:#000000;stroke-width:0.8;" x="253.78" xlink:href="#mf7c5134756" y="226.274489"/>
      </g>
     </g>
     <g id="text_23">
      <!-- 1 -->
      <g transform="translate(240.4175 230.073707)scale(0.1 -0.1)">
       <use xlink:href="#DejaVuSerif-31"/>
      </g>
     </g>
    </g>
    <g id="ytick_20">
     <g id="line2d_51">
      <g>
       <use style="stroke:#000000;stroke-width:0.8;" x="253.78" xlink:href="#mf7c5134756" y="193.534328"/>
      </g>
     </g>
     <g id="text_24">
      <!-- 10 -->
      <g transform="translate(234.055 197.333547)scale(0.1 -0.1)">
       <use xlink:href="#DejaVuSerif-31"/>
       <use x="63.623047" xlink:href="#DejaVuSerif-30"/>
      </g>
     </g>
    </g>
    <g id="ytick_21">
     <g id="line2d_52">
      <g>
       <use style="stroke:#000000;stroke-width:0.8;" x="253.78" xlink:href="#mf7c5134756" y="160.794168"/>
      </g>
     </g>
     <g id="text_25">
      <!-- 100 -->
      <g transform="translate(227.6925 164.593387)scale(0.1 -0.1)">
       <use xlink:href="#DejaVuSerif-31"/>
       <use x="63.623047" xlink:href="#DejaVuSerif-30"/>
       <use x="127.246094" xlink:href="#DejaVuSerif-30"/>
      </g>
     </g>
    </g>
    <g id="ytick_22">
     <g id="line2d_53">
      <defs>
       <path d="M 0 0 
L -2 0 
" id="m6167caea14" style="stroke:#000000;stroke-width:0.6;"/>
      </defs>
      <g>
       <use style="stroke:#000000;stroke-width:0.6;" x="253.78" xlink:href="#m6167caea14" y="229.447338"/>
      </g>
     </g>
    </g>
    <g id="ytick_23">
     <g id="line2d_54">
      <g>
       <use style="stroke:#000000;stroke-width:0.6;" x="253.78" xlink:href="#m6167caea14" y="227.772596"/>
      </g>
     </g>
    </g>
    <g id="ytick_24">
     <g id="line2d_55">
      <g>
       <use style="stroke:#000000;stroke-width:0.6;" x="253.78" xlink:href="#m6167caea14" y="216.418718"/>
      </g>
     </g>
    </g>
    <g id="ytick_25">
     <g id="line2d_56">
      <g>
       <use style="stroke:#000000;stroke-width:0.6;" x="253.78" xlink:href="#m6167caea14" y="210.653462"/>
      </g>
     </g>
    </g>
    <g id="ytick_26">
     <g id="line2d_57">
      <g>
       <use style="stroke:#000000;stroke-width:0.6;" x="253.78" xlink:href="#m6167caea14" y="206.562948"/>
      </g>
     </g>
    </g>
    <g id="ytick_27">
     <g id="line2d_58">
      <g>
       <use style="stroke:#000000;stroke-width:0.6;" x="253.78" xlink:href="#m6167caea14" y="203.390099"/>
      </g>
     </g>
    </g>
    <g id="ytick_28">
     <g id="line2d_59">
      <g>
       <use style="stroke:#000000;stroke-width:0.6;" x="253.78" xlink:href="#m6167caea14" y="200.797692"/>
      </g>
     </g>
    </g>
    <g id="ytick_29">
     <g id="line2d_60">
      <g>
       <use style="stroke:#000000;stroke-width:0.6;" x="253.78" xlink:href="#m6167caea14" y="198.605843"/>
      </g>
     </g>
    </g>
    <g id="ytick_30">
     <g id="line2d_61">
      <g>
       <use style="stroke:#000000;stroke-width:0.6;" x="253.78" xlink:href="#m6167caea14" y="196.707178"/>
      </g>
     </g>
    </g>
    <g id="ytick_31">
     <g id="line2d_62">
      <g>
       <use style="stroke:#000000;stroke-width:0.6;" x="253.78" xlink:href="#m6167caea14" y="195.032436"/>
      </g>
     </g>
    </g>
    <g id="ytick_32">
     <g id="line2d_63">
      <g>
       <use style="stroke:#000000;stroke-width:0.6;" x="253.78" xlink:href="#m6167caea14" y="183.678558"/>
      </g>
     </g>
    </g>
    <g id="ytick_33">
     <g id="line2d_64">
      <g>
       <use style="stroke:#000000;stroke-width:0.6;" x="253.78" xlink:href="#m6167caea14" y="177.913302"/>
      </g>
     </g>
    </g>
    <g id="ytick_34">
     <g id="line2d_65">
      <g>
       <use style="stroke:#000000;stroke-width:0.6;" x="253.78" xlink:href="#m6167caea14" y="173.822788"/>
      </g>
     </g>
    </g>
    <g id="ytick_35">
     <g id="line2d_66">
      <g>
       <use style="stroke:#000000;stroke-width:0.6;" x="253.78" xlink:href="#m6167caea14" y="170.649938"/>
      </g>
     </g>
    </g>
    <g id="ytick_36">
     <g id="line2d_67">
      <g>
       <use style="stroke:#000000;stroke-width:0.6;" x="253.78" xlink:href="#m6167caea14" y="168.057532"/>
      </g>
     </g>
    </g>
    <g id="ytick_37">
     <g id="line2d_68">
      <g>
       <use style="stroke:#000000;stroke-width:0.6;" x="253.78" xlink:href="#m6167caea14" y="165.865683"/>
      </g>
     </g>
    </g>
    <g id="ytick_38">
     <g id="line2d_69">
      <g>
       <use style="stroke:#000000;stroke-width:0.6;" x="253.78" xlink:href="#m6167caea14" y="163.967017"/>
      </g>
     </g>
    </g>
    <g id="ytick_39">
     <g id="line2d_70">
      <g>
       <use style="stroke:#000000;stroke-width:0.6;" x="253.78" xlink:href="#m6167caea14" y="162.292276"/>
      </g>
     </g>
    </g>
    <g id="text_26">
     <!-- $\ell^*$ -->
     <g transform="translate(221.196875 199.078125)rotate(-90)scale(0.12 -0.12)">
      <defs>
       <path d="M 3009 3897 
L 1888 3291 
L 3009 2681 
L 2828 2375 
L 1778 3009 
L 1778 1831 
L 1422 1831 
L 1422 3009 
L 372 2375 
L 191 2681 
L 1313 3291 
L 191 3897 
L 372 4206 
L 1422 3572 
L 1422 4750 
L 1778 4750 
L 1778 3572 
L 2828 4206 
L 3009 3897 
z
" id="DejaVuSans-2a" transform="scale(0.015625)"/>
      </defs>
      <use transform="translate(0 0.765625)" xlink:href="#DejaVuSans-Oblique-2113"/>
      <use transform="translate(62.14681 39.046875)scale(0.7)" xlink:href="#DejaVuSans-2a"/>
     </g>
    </g>
   </g>
   <g id="line2d_71">
    <defs>
     <path d="M -3 3 
L 3 -3 
M -3 -3 
L 3 3 
" id="mb5744e0457" style="stroke:#000000;"/>
    </defs>
    <g clip-path="url(#pee7153442e)">
     <use style="stroke:#000000;" x="312.776364" xlink:href="#mb5744e0457" y="164.69635"/>
     <use style="stroke:#000000;" x="319.758182" xlink:href="#mb5744e0457" y="158.201761"/>
    </g>
   </g>
   <g id="patch_16">
    <path d="M 253.78 229.678125 
L 253.78 154.798125 
" style="fill:none;stroke:#000000;stroke-linecap:square;stroke-linejoin:miter;"/>
   </g>
   <g id="patch_17">
    <path d="M 322.9 229.678125 
L 322.9 154.798125 
" style="fill:none;stroke:#000000;stroke-linecap:square;stroke-linejoin:miter;"/>
   </g>
   <g id="patch_18">
    <path d="M 253.78 229.678125 
L 322.9 229.678125 
" style="fill:none;stroke:#000000;stroke-linecap:square;stroke-linejoin:miter;"/>
   </g>
   <g id="patch_19">
    <path d="M 253.78 154.798125 
L 322.9 154.798125 
" style="fill:none;stroke:#000000;stroke-linecap:square;stroke-linejoin:miter;"/>
   </g>
  </g>
 </g>
 <defs>
  <clipPath id="p376d46b6be">
   <rect height="217.44" width="267.84" x="61.54" y="22.318125"/>
  </clipPath>
  <clipPath id="pa08209fa0c">
   <rect height="217.44" width="10.872" x="346.12" y="22.318125"/>
  </clipPath>
  <clipPath id="pee7153442e">
   <rect height="74.88" width="69.12" x="253.78" y="154.798125"/>
  </clipPath>
 </defs>
</svg>
